<?xml version="1.0" standalone="no"?><!DOCTYPE svg PUBLIC "-//W3C//DTD SVG 1.1//EN" "http://www.w3.org/Graphics/SVG/1.1/DTD/svg11.dtd"><svg t="1742746517927" class="icon" viewBox="0 0 1024 1024" version="1.1" xmlns="http://www.w3.org/2000/svg" p-id="10237" xmlns:xlink="http://www.w3.org/1999/xlink" width="200" height="200"><path d="M1020.00768 441.301333l-128.128-222.506666a30.208 30.208 0 0 0-26.197333-15.146667h-47.104L730.941013 51.882667a30.250667 30.250667 0 0 0-26.154666-15.146667h-256.938667a30.250667 30.250667 0 0 0-26.197333 15.104l-23.466667 40.533333H222.994347a30.208 30.208 0 0 0-26.154667 15.104L68.32768 330.026667a30.208 30.208 0 0 0 0 30.208l23.424 40.533333L4.114347 552.533333a30.208 30.208 0 0 0 0 30.250667l128.469333 222.506667a30.250667 30.250667 0 0 0 26.197333 15.104h46.762667l87.637333 151.765333a30.250667 30.250667 0 0 0 26.154667 15.146667h256.938667a30.208 30.208 0 0 0 26.197333-15.146667l23.381333-40.533333h175.274667a30.293333 30.293333 0 0 0 26.197333-15.061334l128.426667-222.549333a30.208 30.208 0 0 0 0-30.208l-23.381333-40.533333 87.637333-151.765334a30.293333 30.293333 0 0 0 0-30.208z m-221.824 121.344h-245.290667l91.989334-159.36a5.077333 5.077333 0 0 0 0-5.034666L456.594347 72.021333h245.333333l189.781333 328.746667-93.44 161.877333z m70.101333-101.205333h116.821334l-87.637334 151.765333L839.058347 512l29.226666-50.602667z m-233.557333-60.672l-90.538667 156.8-26.325333-45.525333 30.677333-53.12 0.085334-0.213334a5.034667 5.034667 0 0 0 0.341333-0.853333l0.085333-0.298667a5.034667 5.034667 0 0 0 0-2.346666l-0.085333-0.298667a5.376 5.376 0 0 0-0.341333-0.853333l-0.085334-0.170667-128.469333-222.549333a5.034667 5.034667 0 0 0-4.352-2.517334H360.16768l87.594667-151.765333 186.88 323.712z m-286.165333-171.946667h-58.453334L231.741013 127.658667l175.274667-0.042667-58.453333 101.205333z m-70.058667 0h-55.466667a5.034667 5.034667 0 0 0-4.394666 2.56L126.653013 390.656 100.32768 345.130667l122.666667-212.48 55.509333 96.170666zM225.89568 238.933333h186.88l122.666667 212.48H351.46368a5.034667 5.034667 0 0 0-4.352 2.517334l-188.373333 326.229333-122.624-212.48L225.89568 238.933333z m128.469333 222.549334h181.077334l-26.282667 45.525333h-61.354667-0.085333a4.949333 4.949333 0 0 0-3.285333 1.365333l-0.213334 0.213334a4.864 4.864 0 0 0-0.768 0.938666l-128.426666 222.549334a5.034667 5.034667 0 0 0 0 5.034666l27.733333 48.085334H167.485013l186.88-323.712z m-5.802666 333.781333l29.226666 50.56-58.453333 101.205333-87.594667-151.765333h116.821334z m34.986666 60.672l27.776 48.042667a5.077333 5.077333 0 0 0 4.394667 2.56h183.978667l-26.325334 45.525333h-245.333333L383.634347 855.893333z m35.072 40.533333l-93.44-161.877333 122.666667-212.48 91.946667 159.36a5.034667 5.034667 0 0 0 4.394666 2.517333h376.661334l-122.624 212.48H418.621013z m128.426667-222.549333L456.594347 517.034667h52.608l30.634666 53.12 0.170667 0.256a4.693333 4.693333 0 0 0 1.450667 1.450666l0.256 0.128 0.085333 0.085334a4.693333 4.693333 0 0 0 1.109333 0.426666h0.128a4.949333 4.949333 0 0 0 1.024 0.170667h0.512l256.597334 0.042667a5.034667 5.034667 0 0 0 4.352-2.517334l27.733333-48.085333 87.637333 151.765333h-373.76z m327.04-222.506667l27.733333-48.085333a5.077333 5.077333 0 0 0 0-5.034667L809.874347 238.890667h52.906666l122.368 212.48h-111.018666z" p-id="10238" fill="#1296db"></path><path d="M798.226347 562.645333l-245.333334-0.042666 91.989334-159.36a4.906667 4.906667 0 0 0 0-5.034667l-188.373334-326.229333h245.333334l189.781333 328.746666-93.397333 161.92z" p-id="10239" fill="#1296db"></path><path d="M225.89568 238.933333h186.88l122.624 212.48h-183.893333a5.12 5.12 0 0 0-4.352 2.56L158.781013 780.074667l-122.666666-212.48 189.781333-328.789334z" p-id="10240" fill="#1296db"></path><path d="M418.621013 896.341333l-93.44-161.834666 122.666667-212.394667 91.946667 159.317333a5.546667 5.546667 0 0 0 1.834666 1.834667c0.768 0.426667 1.706667 0.682667 2.56 0.682667h376.661334l-122.666667 212.48H418.621013v-0.085334z" p-id="10241" fill="#1296db"></path></svg>